<?xml version="1.0" encoding="UTF-8" standalone="no"?>
<!-- Created with Inkscape (http://www.inkscape.org/) -->

<svg
   xmlns:dc="http://purl.org/dc/elements/1.1/"
   xmlns:cc="http://creativecommons.org/ns#"
   xmlns:rdf="http://www.w3.org/1999/02/22-rdf-syntax-ns#"
   xmlns:svg="http://www.w3.org/2000/svg"
   xmlns="http://www.w3.org/2000/svg"
   xmlns:sodipodi="http://sodipodi.sourceforge.net/DTD/sodipodi-0.dtd"
   xmlns:inkscape="http://www.inkscape.org/namespaces/inkscape"
   width="32.803539mm"
   height="32.92918mm"
   viewBox="0 0 116.23301 116.6782"
   id="svg2"
   version="1.1"
   inkscape:version="0.91 r13725"
   sodipodi:docname="logo-src.svg">
  <defs
     id="defs4" />
  <sodipodi:namedview
     id="base"
     pagecolor="#ffffff"
     bordercolor="#666666"
     borderopacity="1.0"
     inkscape:pageopacity="0.0"
     inkscape:pageshadow="2"
     inkscape:zoom="1.3607364"
     inkscape:cx="108.32443"
     inkscape:cy="47.990343"
     inkscape:document-units="px"
     inkscape:current-layer="layer1"
     showgrid="false"
     showguides="true"
     inkscape:guide-bbox="true"
     inkscape:window-width="1701"
     inkscape:window-height="949"
     inkscape:window-x="0"
     inkscape:window-y="0"
     inkscape:window-maximized="0"
     fit-margin-top="0"
     fit-margin-left="0"
     fit-margin-right="0"
     fit-margin-bottom="0" />
  <metadata
     id="metadata7">
    <rdf:RDF>
      <cc:Work
         rdf:about="">
        <dc:format>image/svg+xml</dc:format>
        <dc:type
           rdf:resource="http://purl.org/dc/dcmitype/StillImage" />
        <dc:title></dc:title>
      </cc:Work>
    </rdf:RDF>
  </metadata>
  <g
     inkscape:label="Camada 1"
     inkscape:groupmode="layer"
     id="layer1"
     transform="translate(-102.00376,-65.296838)">
    <path
       id="path3417"
       style="fill:#ffb040;fill-opacity:1;fill-rule:evenodd;stroke:none;stroke-width:1px;stroke-linecap:butt;stroke-linejoin:miter;stroke-opacity:1"
       d="m 201.30062,98.218876 6.87647,23.101344 -3.70737,1.7019 -11.20842,-10.03683 3.85968,-14.281713 z m -10.59598,-2.966119 -17.36192,16.718893 2.38841,3.30703 14.69793,-3.21517 3.67448,-14.330473 z m -19.56568,14.421333 17.36192,-16.718893 -2.38841,-3.307033 -14.69793,3.215171 -3.67448,14.330475 z m 38.03088,-25.307994 a 9.50772,9.50772 0 0 1 -9.50772,9.50772 9.50772,9.50772 0 0 1 -9.50772,-9.50772 9.50772,9.50772 0 0 1 9.50772,-9.507719 9.50772,9.50772 0 0 1 9.50772,9.507719 z"
       inkscape:connector-curvature="0"
       inkscape:transform-center-x="-25.462855"
       inkscape:transform-center-y="-22.344954" />
    <path
       inkscape:transform-center-y="-32.478834"
       inkscape:transform-center-x="9.0540266"
       inkscape:connector-curvature="0"
       d="m 153.25641,77.641017 24.0898,0.799764 0.43915,4.055638 -13.07178,7.449514 -12.32215,-8.187133 z m -6.17149,9.109633 10.35429,21.76571 3.89352,-1.21715 1.60894,-14.959199 -12.42709,-8.026935 z m 7.47673,23.12767 -10.3543,-21.76571 -3.89352,1.217149 -1.60893,14.959201 12.42709,8.02694 z M 142.61186,65.786998 a 9.50772,9.50772 0 0 1 6.00419,12.030927 9.50772,9.50772 0 0 1 -12.03093,6.004188 9.50772,9.50772 0 0 1 -6.00418,-12.030927 9.50772,9.50772 0 0 1 12.03092,-6.004188 z"
       style="fill:#c7d605;fill-opacity:1;fill-rule:evenodd;stroke:none;stroke-width:1px;stroke-linecap:butt;stroke-linejoin:miter;stroke-opacity:1"
       id="path3421" />
    <path
       id="path3423"
       style="fill:#17abd6;fill-opacity:1;fill-rule:evenodd;stroke:none;stroke-width:1px;stroke-linecap:butt;stroke-linejoin:miter;stroke-opacity:1"
       d="m 118.50138,116.79356 8.3391,-22.614547 3.98781,0.859279 2.95804,14.751838 -11.64849,9.12015 z m 6.70504,8.7244 23.91817,-2.97969 0.0698,-4.07874 -13.6931,-6.23419 -11.52946,9.27017 z m 24.30551,0.18025 -23.91817,2.9797 -0.0698,4.07874 13.69312,6.23418 11.52945,-9.27017 z m -45.61181,-2.53069 a 9.50772,9.50772 0 0 1 13.30908,-1.91364 9.50772,9.50772 0 0 1 1.91363,13.30908 9.50772,9.50772 0 0 1 -13.30908,1.91363 9.50772,9.50772 0 0 1 -1.91363,-13.30907 z"
       inkscape:connector-curvature="0"
       inkscape:transform-center-x="36.616952"
       inkscape:transform-center-y="-4.7002813" />
    <path
       inkscape:transform-center-y="36.422386"
       inkscape:transform-center-x="14.090705"
       inkscape:connector-curvature="0"
       d="m 144.42491,161.96515 -18.72909,-15.17166 2.09662,-3.49931 14.91918,1.94547 4.88745,13.96343 z m 10.41778,-3.54155 4.87414,-23.60509 -3.83941,-1.37837 -10.30831,10.95924 5.0678,13.89899 z m 7.99068,-22.95516 -4.87412,23.60509 3.83941,1.37838 10.3083,-10.95926 -5.0678,-13.89899 z m -17.07119,42.37235 a 9.50772,9.50772 0 0 1 2.47015,-13.21711 9.50772,9.50772 0 0 1 13.21711,2.47016 9.50772,9.50772 0 0 1 -2.47016,13.21711 9.50772,9.50772 0 0 1 -13.2171,-2.47016 z"
       style="fill:#d40045;fill-opacity:1;fill-rule:evenodd;stroke:none;stroke-width:1px;stroke-linecap:butt;stroke-linejoin:miter;stroke-opacity:1"
       id="path3425" />
    <path
       id="path3427"
       style="fill:#000000;fill-opacity:1;fill-rule:evenodd;stroke:none;stroke-width:1px;stroke-linecap:butt;stroke-linejoin:miter;stroke-opacity:1"
       d="m 195.89509,151.56707 -20.23766,13.09179 -2.67524,-3.07963 6.48225,-13.57746 14.79083,-0.30966 z m -0.13136,-11.00252 -20.92449,-11.96342 -2.5025,3.22156 7.21632,13.20193 14.78558,-0.50111 z m -19.33889,-14.72405 20.9245,11.96339 2.50251,-3.22155 -7.21634,-13.20193 -14.78559,0.50111 z m 34.97629,29.38538 a 9.50772,9.50772 0 0 1 -11.7966,-6.45243 9.50772,9.50772 0 0 1 6.45244,-11.7966 9.50772,9.50772 0 0 1 11.79659,6.45244 9.50772,9.50772 0 0 1 -6.45243,11.79659 z"
       inkscape:connector-curvature="0"
       inkscape:transform-center-x="-32.294659"
       inkscape:transform-center-y="21.734432" />
  </g>
</svg>
