<?xml version="1.0" encoding="UTF-8" standalone="no"?>
<svg
   xmlns:dc="http://purl.org/dc/elements/1.1/"
   xmlns:cc="http://creativecommons.org/ns#"
   xmlns:rdf="http://www.w3.org/1999/02/22-rdf-syntax-ns#"
   xmlns:svg="http://www.w3.org/2000/svg"
   xmlns="http://www.w3.org/2000/svg"
   xmlns:sodipodi="http://sodipodi.sourceforge.net/DTD/sodipodi-0.dtd"
   xmlns:inkscape="http://www.inkscape.org/namespaces/inkscape"
   version="1.1"
   id="svg2"
   viewBox="0 0 578.73935 136.67821"
   height="136.67821"
   width="578.73938"
   inkscape:version="0.48.1 "
   sodipodi:docname="logomarca.svg">
  <sodipodi:namedview
     pagecolor="#ffffff"
     bordercolor="#666666"
     borderopacity="1"
     objecttolerance="10"
     gridtolerance="10"
     guidetolerance="10"
     inkscape:pageopacity="0"
     inkscape:pageshadow="2"
     inkscape:window-width="1920"
     inkscape:window-height="1017"
     id="namedview11"
     showgrid="false"
     showguides="true"
     inkscape:guide-bbox="true"
     inkscape:zoom="2.4940392"
     inkscape:cx="287.34539"
     inkscape:cy="68.339101"
     inkscape:window-x="-8"
     inkscape:window-y="-8"
     inkscape:window-maximized="1"
     inkscape:current-layer="svg2"
     fit-margin-top="10"
     fit-margin-left="30"
     fit-margin-right="30"
     fit-margin-bottom="10">
    <sodipodi:guide
       orientation="0,1"
       position="186.77379,59.317591"
       id="guide3009" />
  </sodipodi:namedview>
  <defs
     id="defs4" />
  <metadata
     id="metadata7">
    <rdf:RDF>
      <cc:Work
         rdf:about="">
        <dc:format>image/svg+xml</dc:format>
        <dc:type
           rdf:resource="http://purl.org/dc/dcmitype/StillImage" />
        <dc:title />
      </cc:Work>
    </rdf:RDF>
  </metadata>
  <g
     id="g3027"
     transform="translate(30.190518,10)"
     style="fill:#4d4d4d;fill-opacity:1">
    <g
       style="font-size:33.30498505px;font-style:normal;font-variant:normal;font-weight:bold;font-stretch:normal;text-align:center;line-height:125%;letter-spacing:0px;word-spacing:0px;writing-mode:lr-tb;text-anchor:middle;fill:#4d4d4d;fill-opacity:1;stroke:none;font-family:ITC Franklin Gothic Std Med;-inkscape-font-specification:ITC Franklin Gothic Std Med Bold"
       id="text2988">
      <path
         d="m 144.9956,53.79904 -10.29111,0 0,4.829161 3.76341,0 c -0.018,0.907556 -0.31502,1.615277 -0.89089,2.123165 -0.57591,0.5079 -1.32249,0.76601 -2.23974,0.774331 -0.73618,-0.0083 -1.37035,-0.208147 -1.90252,-0.599482 -0.53219,-0.391323 -0.94156,-0.924195 -1.2281,-1.598618 -0.25812,-0.616127 -0.42465,-1.29887 -0.49957,-2.048231 -0.075,-0.749343 -0.10825,-1.46539 -0.0999,-2.148144 -0.0175,-0.816154 0.0397,-1.737168 0.17146,-2.763044 0.13177,-1.025848 0.44302,-1.922192 0.93376,-2.689035 0.49072,-0.766809 1.26577,-1.169753 2.32515,-1.208832 1.0477,0.03402 1.80815,0.398979 2.28136,1.094888 0.47319,0.695942 0.76738,1.518842 0.88258,2.4687 l 6.79413,-0.699396 c -0.51555,-2.617859 -1.61599,-4.59254 -3.30132,-5.924048 -1.68537,-1.331466 -3.85987,-1.998944 -6.52353,-2.002436 -1.68189,-0.0194 -3.2139,0.244257 -4.59603,0.790983 -1.38214,0.546772 -2.61441,1.493175 -3.6968,2.839213 -0.94155,1.201064 -1.62291,2.537408 -2.04407,4.009036 -0.42117,1.471659 -0.62793,2.9662 -0.6203,4.483626 0.01,3.213897 0.88118,5.894911 2.61441,8.04305 1.73322,2.148145 4.26991,3.263846 7.61009,3.347108 1.20312,0.0069 2.35212,-0.206766 3.44702,-0.641113 1.09487,-0.434346 2.01075,-1.130965 2.74763,-2.08986 l 0.93253,2.397928 3.43037,0 z"
         style="fill:#4d4d4d;fill-opacity:1"
         id="path3202"
         inkscape:connector-curvature="0" />
      <path
         d="m 164.96821,61.126043 -10.29111,0 0,-3.696806 8.32614,0 0,-5.095597 -8.32614,0 0,-3.330456 10.29111,0 0,-5.26212 -17.15184,0 0,22.846926 17.15184,0 z"
         style="fill:#4d4d4d;fill-opacity:1"
         id="path3204"
         inkscape:connector-curvature="0" />
      <path
         d="m 166.45417,59.960383 c 0.66817,2.461071 1.9379,4.241475 3.8092,5.341218 1.8713,1.099744 4.03193,1.639555 6.4819,1.619434 1.61465,0.0068 3.19599,-0.251017 4.74405,-0.773405 1.54803,-0.522387 2.83334,-1.350066 3.85593,-2.48304 1.02255,-1.132968 1.55296,-2.611936 1.59122,-4.436907 -0.002,-1.260708 -0.28936,-2.394449 -0.86176,-3.401228 -0.57244,-1.006758 -1.41754,-1.81578 -2.53531,-2.427069 -1.00817,-0.500943 -2.0642,-0.88117 -3.16809,-1.140683 -1.10392,-0.259483 -2.20159,-0.489839 -3.29299,-0.691068 -0.48431,-0.08047 -1.01441,-0.227567 -1.59029,-0.441286 -0.5759,-0.213689 -0.88952,-0.610568 -0.94086,-1.190637 0.0361,-0.585588 0.29696,-0.979692 0.78266,-1.182313 0.48568,-0.202584 0.9797,-0.296947 1.48205,-0.283088 0.88464,-0.01039 1.63816,0.160296 2.26055,0.512058 0.62236,0.351796 1.10112,0.947115 1.43626,1.785957 l 5.79499,-1.765142 c -0.74729,-1.967031 -1.95874,-3.394963 -3.63436,-4.283799 -1.67565,-0.888793 -3.52821,-1.325915 -5.5577,-1.311366 -1.14763,-0.009 -2.29108,0.117283 -3.43037,0.378839 -1.1393,0.261601 -2.18284,0.7126 -3.13062,1.352998 -0.92351,0.667499 -1.64095,1.505663 -2.15231,2.514493 -0.51137,1.008868 -0.77086,2.080164 -0.77849,3.21389 0.0364,1.785303 0.52978,3.169702 1.4802,4.153202 0.95041,0.983523 2.1395,1.711699 3.56729,2.184532 1.42777,0.472851 2.8759,0.835912 4.34439,1.089182 0.56825,0.07772 1.16357,0.23869 1.78596,0.482916 0.62236,0.244241 0.95957,0.704954 1.01162,1.382139 -0.0562,0.611977 -0.39342,1.003305 -1.01162,1.173986 -0.61823,0.17069 -1.18024,0.245626 -1.68605,0.224806 -1.02481,0.0118 -1.89767,-0.194965 -2.61857,-0.620298 -0.72091,-0.425321 -1.23574,-1.139981 -1.5445,-2.14398 z"
         style="fill:#4d4d4d;fill-opacity:1"
         id="path3206"
         inkscape:connector-curvature="0" />
      <path
         d="m 199.6976,49.236316 4.69594,0 0,-5.495252 -16.15271,0 0,5.495252 4.79586,0 0,17.351674 6.66091,0 z"
         style="fill:#4d4d4d;fill-opacity:1"
         id="path3208"
         inkscape:connector-curvature="0" />
      <path
         d="m 219.48072,66.58799 7.16048,0 -7.16048,-22.846926 -7.39361,0 -7.09387,22.846926 5.69508,0 1.39879,-4.496115 6.09473,0 z m -6.22795,-9.491799 1.86505,-6.627606 1.86506,6.627606 z m 6.86074,-20.182561 c -0.34625,0.272711 -0.71121,0.551636 -1.09489,0.836777 -0.38371,0.285199 -0.80696,0.439232 -1.26974,0.462101 -0.61753,-0.04854 -1.28085,-0.242817 -1.98995,-0.58283 -0.70911,-0.339956 -1.45569,-0.534232 -2.23973,-0.58283 -0.74936,0.02709 -1.45708,0.239406 -2.12316,0.63695 -0.6661,0.397602 -1.29056,0.818072 -1.87338,1.26141 l 1.63192,2.131492 c 0.18178,-0.151233 0.3594,-0.298328 0.53287,-0.441286 0.17346,-0.142906 0.35108,-0.273349 0.53288,-0.391328 0.18247,-0.118622 0.37536,-0.214373 0.57866,-0.287253 0.20329,-0.07283 0.42116,-0.110294 0.6536,-0.112402 0.66123,0.0486 1.32871,0.242872 2.00244,0.582829 0.67371,0.34001 1.38282,0.534287 2.12733,0.582831 0.81942,-0.01732 1.58681,-0.224087 2.30218,-0.620298 0.71533,-0.396159 1.35783,-0.877687 1.9275,-1.444585 z"
         style="fill:#4d4d4d;fill-opacity:1"
         id="path3210"
         inkscape:connector-curvature="0" />
      <path
         d="m 238.4365,43.408019 c -3.50046,0.06594 -6.19118,1.183028 -8.07219,3.351271 -1.88102,2.168284 -2.83158,4.992229 -2.8517,8.471846 0.0222,3.328382 0.97693,6.088494 2.86419,8.280345 1.88725,2.191856 4.57382,3.328373 8.0597,3.409554 3.48586,-0.08118 6.17243,-1.217697 8.0597,-3.409554 1.88724,-2.191851 2.84197,-4.951963 2.86419,-8.280345 -0.0201,-3.479617 -0.97071,-6.303564 -2.8517,-8.471847 -1.88103,-2.168244 -4.57176,-3.285333 -8.07219,-3.35127 z m 0,5.162206 c 1.01742,0.04134 1.77273,0.454563 2.26594,1.23967 0.49318,0.785139 0.81431,1.694229 0.96337,2.727272 0.14903,1.033071 0.21605,1.942162 0.20106,2.727274 0.0168,0.77136 -0.0428,1.65249 -0.17886,2.643394 -0.13611,0.990921 -0.44983,1.859717 -0.94116,2.60639 -0.49136,0.746685 -1.26147,1.13935 -2.31035,1.177995 -1.0489,-0.03865 -1.81901,-0.43131 -2.31035,-1.177995 -0.49135,-0.746673 -0.80507,-1.615469 -0.94116,-2.60639 -0.13611,-0.990904 -0.19573,-1.872034 -0.17886,-2.643394 -0.015,-0.785112 0.052,-1.694203 0.20106,-2.727274 0.14904,-1.033043 0.47016,-1.942133 0.96337,-2.727273 0.49318,-0.785107 1.2485,-1.198329 2.26594,-1.239669 z"
         style="fill:#4d4d4d;fill-opacity:1"
         id="path3212"
         inkscape:connector-curvature="0" />
    </g>
    <g
       style="font-size:34.47399902px;font-style:normal;font-variant:normal;font-weight:normal;font-stretch:normal;text-align:center;line-height:125%;letter-spacing:-1.02738035px;word-spacing:0px;writing-mode:lr-tb;text-anchor:middle;fill:#4d4d4d;fill-opacity:1;stroke:none;font-family:ITC Franklin Gothic Std Book;-inkscape-font-specification:'ITC Franklin Gothic Std Book,'"
       id="text3003">
      <path
         d="m 271.1721,67.385124 -4.65393,-10.96259 c 1.39042,-0.410081 2.47059,-1.167062 3.24051,-2.270946 0.76989,-1.103858 1.16059,-2.369323 1.1721,-3.7964 -0.006,-1.014797 -0.22697,-1.975747 -0.66361,-2.882851 -0.43669,-0.907065 -1.05434,-1.669792 -1.85295,-2.288182 -0.79722,-0.588183 -1.65044,-0.980319 -2.55967,-1.176411 -0.90925,-0.196044 -1.84865,-0.286537 -2.81821,-0.271479 l -8.8597,0 0,23.648859 2.96472,0 0,-10.238646 6.54998,0 4.37814,10.238646 z m -14.03074,-12.651795 0,-8.446021 5.89498,0 c 0.61477,-0.01362 1.18645,0.02229 1.71506,0.107731 0.52858,0.08549 1.04856,0.302382 1.55993,0.650688 0.56664,0.382101 0.98463,0.850367 1.25397,1.404797 0.26931,0.554468 0.4029,1.177864 0.40076,1.87019 10e-4,0.575294 -0.0963,1.131179 -0.29303,1.667658 -0.1968,0.536509 -0.50132,1.01483 -0.91355,1.434962 -0.58319,0.582473 -1.20946,0.951627 -1.8788,1.107463 -0.66938,0.155862 -1.39907,0.223373 -2.18907,0.202532 z"
         style="letter-spacing:-2px;fill:#4d4d4d;fill-opacity:1"
         id="path3215"
         inkscape:connector-curvature="0" />
      <path
         d="m 288.96504,64.834081 -12.34153,0 0,-8.652862 9.5147,0 0,-2.378676 -9.5147,0 0,-7.515235 11.9968,0 0,-2.551043 -14.96153,0 0,23.648859 15.30626,0 z"
         style="letter-spacing:-2px;fill:#4d4d4d;fill-opacity:1"
         id="path3217"
         inkscape:connector-curvature="0" />
      <path
         d="m 308.73696,55.457274 -8.92865,0 0,2.482096 5.89498,0 0,1.309995 c -0.0187,1.82136 -0.55016,3.280739 -1.5944,4.378142 -1.04428,1.09741 -2.4893,1.660478 -4.33505,1.689204 -1.18863,-0.0158 -2.26737,-0.328933 -3.23621,-0.939405 -0.96886,-0.610465 -1.72871,-1.423466 -2.27956,-2.439004 -0.47833,-0.933652 -0.82306,-1.953493 -1.03421,-3.059528 -0.21115,-1.106017 -0.31458,-2.177569 -0.31026,-3.214659 -0.0147,-1.488308 0.17938,-2.977905 0.58222,-4.468795 0.40282,-1.490857 1.10251,-2.740416 2.09905,-3.748679 0.99654,-1.008224 2.37803,-1.532562 4.14449,-1.573015 1.56925,0.023 2.87781,0.485523 3.92568,1.38756 1.04784,0.902078 1.72725,2.105778 2.03825,3.611105 l 2.79236,-0.689471 c -0.55663,-2.138059 -1.55492,-3.799971 -2.99489,-4.985739 -1.44001,-1.185723 -3.29152,-1.787573 -5.55456,-1.805551 -2.32952,0.03833 -4.2511,0.65119 -5.76474,1.838589 -1.51365,1.187443 -2.63851,2.719599 -3.37458,4.596474 -0.73607,1.876909 -1.10252,3.868713 -1.09932,5.975417 -0.009,1.503919 0.18098,2.951807 0.56881,4.343668 0.38783,1.391875 1.02559,2.701869 1.91328,3.929985 0.93869,1.253259 2.0088,2.176862 3.21035,2.770811 1.20154,0.593951 2.59054,0.888412 4.167,0.883386 1.31141,0.0065 2.54097,-0.239161 3.68867,-0.736873 1.14766,-0.497711 2.10143,-1.286293 2.8613,-2.365747 l 0.79289,2.930252 1.8271,0 z"
         style="letter-spacing:-2px;fill:#4d4d4d;fill-opacity:1"
         id="path3219"
         inkscape:connector-curvature="0" />
      <path
         d="m 314.77498,67.385124 0,-23.648859 -2.96473,0 0,23.648859 z"
         style="letter-spacing:-2px;fill:#4d4d4d;fill-opacity:1"
         id="path3221"
         inkscape:connector-curvature="0" />
      <path
         d="m 327.17696,67.72986 c 2.23587,-0.04639 4.06893,-0.692876 5.49917,-1.939457 1.43021,-1.246579 2.48697,-2.814911 3.17029,-4.705003 0.68328,-1.890079 1.02248,-3.823575 1.01761,-5.800494 0.003,-1.980939 -0.34412,-3.871875 -1.04187,-5.672815 -0.69779,-1.800904 -1.76519,-3.278159 -3.20221,-4.431767 -1.43705,-1.153564 -3.26287,-1.749828 -5.47746,-1.788794 -2.26888,0.04322 -4.12024,0.673108 -5.55408,1.889661 -1.43384,1.216597 -2.48848,2.76067 -3.1639,4.632224 -0.67543,1.871589 -1.00995,3.81147 -1.00357,5.819648 -0.005,2.014797 0.33474,3.929992 1.02017,5.745592 0.68542,1.815611 1.74814,3.301803 3.18816,4.458579 1.44001,1.15678 3.28924,1.754321 5.54769,1.792626 z m 0,-2.413149 c -1.6558,-0.04256 -2.97133,-0.56647 -3.94658,-1.571739 -0.97527,-1.005261 -1.67283,-2.23652 -2.09268,-3.693778 -0.41985,-1.457244 -0.62457,-2.885129 -0.61414,-4.283658 -0.0147,-1.457453 0.17556,-2.943645 0.57073,-4.458581 0.39517,-1.514903 1.08336,-2.794254 2.06459,-3.838055 0.98121,-1.043762 2.34355,-1.587677 4.08703,-1.631748 1.11104,0.01582 2.10359,0.31172 2.97765,0.887695 0.87403,0.576015 1.58218,1.337306 2.12443,2.283872 0.52643,0.966714 0.89558,2.015283 1.10747,3.145712 0.21185,1.13046 0.31383,2.23074 0.30595,3.300843 0.0125,1.402361 -0.18111,2.857059 -0.58094,4.364096 -0.39987,1.507054 -1.08126,2.788106 -2.04416,3.843163 -0.96293,1.055064 -2.28271,1.605789 -3.95935,1.652178 z"
         style="letter-spacing:-2px;fill:#4d4d4d;fill-opacity:1"
         id="path3223"
         inkscape:connector-curvature="0" />
      <path
         d="m 356.62252,43.736265 -2.48209,0 0,19.270718 -11.20391,-19.270718 -3.72314,0 0,23.648859 2.48209,0 0,-20.615186 12.03127,20.615186 2.89578,0 z"
         style="letter-spacing:-2px;fill:#4d4d4d;fill-opacity:1"
         id="path3225"
         inkscape:connector-curvature="0" />
      <path
         d="m 368.62446,43.736265 -3.41288,0 -7.65313,23.648859 2.4821,0 2.10288,-6.894711 8.75629,0 2.37867,6.894711 3.03368,0 z m 1.62026,14.513367 -7.27392,0 3.6542,-11.3418 z"
         style="letter-spacing:-2px;fill:#4d4d4d;fill-opacity:1"
         id="path3227"
         inkscape:connector-curvature="0" />
      <path
         d="m 391.46453,64.765134 -10.99707,0 0,-21.028869 -2.96472,0 0,23.648859 13.96179,0 z"
         style="letter-spacing:-2px;fill:#4d4d4d;fill-opacity:1"
         id="path3229"
         inkscape:connector-curvature="0" />
      <path
         d="m 416.4496,64.834081 -12.34153,0 0,-8.652862 9.5147,0 0,-2.378676 -9.5147,0 0,-7.515235 11.9968,0 0,-2.551043 -14.96153,0 0,23.648859 15.30626,0 z"
         style="letter-spacing:-2px;fill:#4d4d4d;fill-opacity:1"
         id="path3231"
         inkscape:connector-curvature="0" />
      <path
         d="m 443.69433,67.385124 -4.65393,-10.96259 c 1.39042,-0.410081 2.47059,-1.167062 3.24052,-2.270946 0.76989,-1.103858 1.16059,-2.369323 1.1721,-3.7964 -0.006,-1.014797 -0.22697,-1.975747 -0.66362,-2.882851 -0.43668,-0.907065 -1.05433,-1.669792 -1.85295,-2.288182 -0.79722,-0.588183 -1.65044,-0.980319 -2.55967,-1.176411 -0.90925,-0.196044 -1.84865,-0.286537 -2.81821,-0.271479 l -8.8597,0 0,23.648859 2.96472,0 0,-10.238646 6.54998,0 4.37814,10.238646 z m -14.03074,-12.651795 0,-8.446021 5.89498,0 c 0.61477,-0.01362 1.18646,0.02229 1.71506,0.107731 0.52858,0.08549 1.04856,0.302382 1.55993,0.650688 0.56664,0.382101 0.98463,0.850367 1.25398,1.404797 0.2693,0.554468 0.40289,1.177864 0.40075,1.87019 10e-4,0.575294 -0.0962,1.131179 -0.29302,1.667658 -0.19681,0.536509 -0.50132,1.01483 -0.91355,1.434962 -0.5832,0.582473 -1.20946,0.951627 -1.87881,1.107463 -0.66938,0.155862 -1.39907,0.223373 -2.18907,0.202532 z"
         style="letter-spacing:-2px;fill:#4d4d4d;fill-opacity:1"
         id="path3233"
         inkscape:connector-curvature="0" />
      <path
         d="m 461.48728,64.834081 -12.34154,0 0,-8.652862 9.5147,0 0,-2.378676 -9.5147,0 0,-7.515235 11.9968,0 0,-2.551043 -14.96152,0 0,23.648859 15.30626,0 z"
         style="letter-spacing:-2px;fill:#4d4d4d;fill-opacity:1"
         id="path3235"
         inkscape:connector-curvature="0" />
      <path
         d="m 463.50531,67.385124 8.44602,0 c 1.61522,0.0093 3.04731,-0.285125 4.29627,-0.883385 1.24893,-0.598258 2.3449,-1.556335 3.28792,-2.874232 0.84099,-1.19867 1.46007,-2.489991 1.85726,-3.873967 0.39714,-1.383961 0.59393,-2.804557 0.59036,-4.261792 0.008,-1.544115 -0.21477,-3.032222 -0.66793,-4.464326 -0.4532,-1.432071 -1.18433,-2.747811 -2.19338,-3.947222 -1.1082,-1.300637 -2.32195,-2.189767 -3.64127,-2.667392 -1.31934,-0.477579 -2.8175,-0.703093 -4.49449,-0.676543 l -7.48076,0 z m 2.96473,-2.516569 0,-18.650194 4.34367,0 c 1.23457,-0.02655 2.34203,0.121398 3.32238,0.443848 0.98033,0.322491 1.87233,0.978924 2.67601,1.969301 0.76918,0.979641 1.32506,2.062684 1.66766,3.249133 0.34256,1.186479 0.51062,2.39018 0.50418,3.611105 10e-4,1.0888 -0.13935,2.194825 -0.4223,3.318079 -0.28299,1.123271 -0.71678,2.143113 -1.30138,3.059528 -0.77711,1.165641 -1.70502,1.962841 -2.78374,2.391602 -1.07875,0.428768 -2.29968,0.6313 -3.66281,0.607598 z"
         style="letter-spacing:-2px;fill:#4d4d4d;fill-opacity:1"
         id="path3237"
         inkscape:connector-curvature="0" />
      <path
         d="m 499.56979,64.834081 -12.34153,0 0,-8.652862 9.5147,0 0,-2.378676 -9.5147,0 0,-7.515235 11.9968,0 0,-2.551043 -14.96152,0 0,23.648859 15.30625,0 z"
         style="letter-spacing:-2px;fill:#4d4d4d;fill-opacity:1"
         id="path3239"
         inkscape:connector-curvature="0" />
      <path
         d="m 500.13994,61.007516 c 0.79146,2.286032 1.98366,3.979543 3.57663,5.08054 1.59296,1.100999 3.5953,1.648266 6.00702,1.641804 1.08447,0.01005 2.16464,-0.113476 3.24051,-0.370591 1.07585,-0.257115 2.0526,-0.708144 2.93026,-1.353087 0.86469,-0.663614 1.52256,-1.456505 1.97361,-2.378675 0.45101,-0.922163 0.67796,-1.921895 0.68085,-2.9992 7e-4,-0.934369 -0.18172,-1.797643 -0.54727,-2.589825 -0.36558,-0.792163 -0.91859,-1.491689 -1.65904,-2.098578 -0.61048,-0.507037 -1.28559,-0.897737 -2.02532,-1.172101 -0.73976,-0.274339 -1.50105,-0.492672 -2.28387,-0.654998 l -3.55078,-0.861838 c -1.14338,-0.216883 -2.13162,-0.575982 -2.96472,-1.0773 -0.83312,-0.501287 -1.26979,-1.394726 -1.31,-2.680318 0.0711,-1.287712 0.6356,-2.23717 1.69352,-2.848378 1.05789,-0.611166 2.18259,-0.914246 3.37409,-0.909239 1.30999,0.01223 2.52518,0.384257 3.64558,1.116081 1.12038,0.731865 1.8357,1.75027 2.14598,3.055219 l 2.68894,-0.723945 c -0.66076,-1.915417 -1.72657,-3.358996 -3.19742,-4.330741 -1.47089,-0.9717 -3.20893,-1.458638 -5.21413,-1.460816 -2.12947,-0.0129 -3.98098,0.504199 -5.55455,1.55131 -1.57358,1.047155 -2.39951,2.701884 -2.47779,4.964192 0.003,0.837437 0.16949,1.636073 0.49987,2.395911 0.33037,0.759869 0.80725,1.420611 1.43065,1.98223 0.62196,0.553026 1.29132,0.963835 2.00809,1.23243 0.71675,0.268618 1.4723,0.489823 2.26663,0.663616 l 3.92999,0.965259 c 1.07297,0.238453 2.00376,0.649262 2.79236,1.23243 0.78856,0.583187 1.20224,1.459388 1.24104,2.628608 -0.004,0.581029 -0.1336,1.14266 -0.38782,1.684895 -0.25426,0.542245 -0.60762,0.991837 -1.06007,1.348778 -0.57098,0.425895 -1.2389,0.728974 -2.00377,0.90924 -0.7649,0.18027 -1.51039,0.26789 -2.23647,0.262861 -1.67916,0.005 -3.13854,-0.384234 -4.37814,-1.167791 -1.23962,-0.783551 -2.11295,-1.991561 -2.61999,-3.624033 z"
         style="letter-spacing:-2px;fill:#4d4d4d;fill-opacity:1"
         id="path3241"
         inkscape:connector-curvature="0" />
    </g>
  </g>
  <g
     style="font-size:17.87119293px;font-style:normal;font-variant:normal;font-weight:normal;font-stretch:normal;text-align:center;line-height:125%;letter-spacing:0px;word-spacing:0px;writing-mode:lr-tb;text-anchor:middle;fill:#4d4d4d;fill-opacity:1;stroke:none;font-family:ITC Franklin Gothic Std Book;-inkscape-font-specification:'ITC Franklin Gothic Std Book,'"
     id="text3023"
     transform="translate(29.999993,10)">
    <path
       d="m 132.32734,88.932607 -6.39781,0 0,-4.485612 4.93239,0 0,-1.233096 -4.93239,0 0,-3.89587 6.2191,0 0,-1.322451 -7.756,0 0,12.25948 7.93471,0 z"
       style="text-align:start;letter-spacing:1.53999996px;word-spacing:-2.49000001px;text-anchor:start;fill:#4d4d4d;fill-opacity:1"
       id="path3139"
       inkscape:connector-curvature="0" />
    <path
       d="m 135.19969,86.94893 c 0.41029,1.18507 1.02832,2.06298 1.85411,2.633733 0.82578,0.570754 1.86379,0.854455 3.11402,0.851105 0.56218,0.0052 1.12214,-0.05882 1.67987,-0.192113 0.55771,-0.133287 1.06406,-0.367099 1.51903,-0.701435 0.44825,-0.344015 0.78929,-0.755047 1.02311,-1.233097 0.2338,-0.478045 0.35145,-0.996303 0.35295,-1.554773 3.6e-4,-0.484374 -0.0942,-0.931892 -0.2837,-1.342556 -0.18952,-0.410655 -0.47619,-0.773286 -0.86004,-1.087895 -0.31647,-0.262846 -0.66645,-0.465384 -1.04992,-0.607613 -0.38349,-0.142217 -0.77814,-0.255399 -1.18395,-0.339548 l -1.84071,-0.446774 c -0.59272,-0.112432 -1.10502,-0.298587 -1.5369,-0.558469 -0.43189,-0.259865 -0.65825,-0.72302 -0.6791,-1.389466 0.0369,-0.667546 0.3295,-1.159741 0.87791,-1.476589 0.54841,-0.316826 1.13145,-0.473942 1.74912,-0.471346 0.67909,0.0063 1.30904,0.199197 1.88986,0.578572 0.5808,0.379396 0.95162,0.907333 1.11247,1.583814 l 1.39393,-0.37529 c -0.34254,-0.992945 -0.89505,-1.741291 -1.65753,-2.24504 -0.7625,-0.503726 -1.6635,-0.756153 -2.70298,-0.757282 -1.10391,-0.0067 -2.06373,0.261375 -2.87946,0.804193 -0.81574,0.542842 -1.2439,1.400647 -1.28448,2.573419 0.001,0.434124 0.0879,0.848134 0.25913,1.242032 0.17126,0.393913 0.41848,0.736439 0.74165,1.02758 0.32241,0.286687 0.66941,0.499649 1.04098,0.638887 0.37156,0.139251 0.76323,0.253923 1.17501,0.344016 l 2.03729,0.500387 c 0.55623,0.123613 1.03875,0.336575 1.44755,0.638888 0.40879,0.302321 0.62324,0.756541 0.64336,1.36266 -0.002,0.301203 -0.0693,0.592351 -0.20105,0.873443 -0.13181,0.281098 -0.31499,0.514165 -0.54953,0.699202 -0.296,0.220782 -0.64225,0.377897 -1.03875,0.471346 -0.39652,0.09345 -0.78298,0.138874 -1.15938,0.136267 -0.87047,0.0026 -1.62701,-0.199186 -2.26961,-0.605379 -0.64262,-0.40619 -1.09535,-1.032418 -1.3582,-1.878685 z"
       style="text-align:start;letter-spacing:1.53999996px;word-spacing:-2.49000001px;text-anchor:start;fill:#4d4d4d;fill-opacity:1"
       id="path3141"
       inkscape:connector-curvature="0" />
    <path
       d="m 152.27221,79.3359 3.48484,0 0,-1.340322 -8.50658,0 0,1.340322 3.48484,0 0,10.919158 1.5369,0 z"
       style="text-align:start;letter-spacing:1.53999996px;word-spacing:-2.49000001px;text-anchor:start;fill:#4d4d4d;fill-opacity:1"
       id="path3143"
       inkscape:connector-curvature="0" />
    <path
       d="m 167.76955,90.255058 -2.41258,-5.682966 c 0.72079,-0.212584 1.28074,-0.605 1.67987,-1.17725 0.39911,-0.572236 0.60164,-1.228248 0.60761,-1.968039 -0.003,-0.526068 -0.11766,-1.02422 -0.34401,-1.49446 -0.22638,-0.470219 -0.54657,-0.865613 -0.96057,-1.186185 -0.41327,-0.304911 -0.85558,-0.508193 -1.32692,-0.609847 -0.47135,-0.101628 -0.95834,-0.14854 -1.46095,-0.140733 l -4.59284,0 0,12.25948 1.53691,0 0,-5.307676 3.39548,0 2.26961,5.307676 z m -7.27348,-6.558643 0,-4.378386 3.05593,0 c 0.31869,-0.0071 0.61505,0.01155 0.88908,0.05585 0.27402,0.04432 0.54357,0.156754 0.80866,0.337314 0.29375,0.19808 0.51043,0.440827 0.65006,0.728242 0.13961,0.287434 0.20886,0.6106 0.20775,0.9695 7.3e-4,0.29823 -0.0499,0.586399 -0.1519,0.864507 -0.10203,0.278125 -0.25989,0.526084 -0.47358,0.743879 -0.30233,0.301952 -0.62699,0.49332 -0.97397,0.574105 -0.347,0.0808 -0.72527,0.115795 -1.13481,0.104992 z"
       style="text-align:start;letter-spacing:1.53999996px;word-spacing:-2.49000001px;text-anchor:start;fill:#4d4d4d;fill-opacity:1"
       id="path3145"
       inkscape:connector-curvature="0" />
    <path
       d="m 175.99594,77.995578 -1.76922,0 -3.96736,12.25948 1.28671,0 1.09013,-3.574192 4.53922,0 1.2331,3.574192 1.57265,0 z m 0.83994,7.523675 -3.77078,0 1.89432,-5.879547 z"
       style="text-align:start;letter-spacing:1.53999996px;word-spacing:-2.49000001px;text-anchor:start;fill:#4d4d4d;fill-opacity:1"
       id="path3147"
       inkscape:connector-curvature="0" />
    <path
       d="m 186.91023,79.3359 3.48484,0 0,-1.340322 -8.50658,0 0,1.340322 3.48484,0 0,10.919158 1.5369,0 z"
       style="text-align:start;letter-spacing:1.53999996px;word-spacing:-2.49000001px;text-anchor:start;fill:#4d4d4d;fill-opacity:1"
       id="path3149"
       inkscape:connector-curvature="0" />
    <path
       d="m 201.60337,88.932607 -6.3978,0 0,-4.485612 4.93239,0 0,-1.233096 -4.93239,0 0,-3.89587 6.2191,0 0,-1.322451 -7.756,0 0,12.25948 7.9347,0 z m -0.80419,-13.492577 -0.60761,-1.161612 -3.59206,2.126644 0.35741,0.714839 z"
       style="text-align:start;letter-spacing:1.53999996px;word-spacing:-2.49000001px;text-anchor:start;fill:#4d4d4d;fill-opacity:1"
       id="path3151"
       inkscape:connector-curvature="0" />
    <path
       d="m 214.42985,84.071705 -4.62858,0 0,1.286709 3.05594,0 0,0.679097 c -0.01,0.944186 -0.2852,1.700723 -0.82653,2.269612 -0.54135,0.568894 -1.29044,0.860786 -2.24728,0.875678 -0.61618,-0.0082 -1.17539,-0.170518 -1.67763,-0.486984 -0.50226,-0.316464 -0.89616,-0.73792 -1.18172,-1.264371 -0.24796,-0.484002 -0.42667,-1.012684 -0.53613,-1.586048 -0.10946,-0.573355 -0.16308,-1.128843 -0.16084,-1.666467 -0.008,-0.771534 0.093,-1.543735 0.30182,-2.316607 0.20882,-0.772855 0.57154,-1.420621 1.08814,-1.943301 0.5166,-0.52266 1.23277,-0.794475 2.14849,-0.815446 0.8135,0.01193 1.49185,0.251694 2.03506,0.719307 0.54319,0.467633 0.8954,1.091627 1.05662,1.871983 l 1.44755,-0.357419 c -0.28856,-1.108362 -0.80607,-1.969891 -1.55254,-2.584589 -0.7465,-0.614674 -1.70632,-0.926671 -2.87946,-0.935991 -1.20762,0.01987 -2.20376,0.337575 -2.98842,0.953118 -0.78467,0.615566 -1.3678,1.40983 -1.74937,2.382795 -0.38158,0.972983 -0.57154,2.005526 -0.56989,3.097634 -0.004,0.779626 0.0938,1.530205 0.29487,2.251741 0.20105,0.721543 0.53166,1.400639 0.99184,2.03729 0.48661,0.649685 1.04135,1.128477 1.66423,1.436378 0.62288,0.307902 1.34293,0.46055 2.16016,0.457944 0.67983,0.0034 1.31723,-0.12398 1.91219,-0.381992 0.59495,-0.258012 1.08938,-0.66681 1.48329,-1.226395 l 0.41103,1.519032 0.94716,0 z"
       style="text-align:start;letter-spacing:1.53999996px;word-spacing:-2.49000001px;text-anchor:start;fill:#4d4d4d;fill-opacity:1"
       id="path3153"
       inkscape:connector-curvature="0" />
    <path
       d="m 220.13673,90.255058 0,-12.25948 -1.5369,0 0,12.25948 z"
       style="text-align:start;letter-spacing:1.53999996px;word-spacing:-2.49000001px;text-anchor:start;fill:#4d4d4d;fill-opacity:1"
       id="path3155"
       inkscape:connector-curvature="0" />
    <path
       d="m 229.10693,77.995578 -1.76923,0 -3.96735,12.25948 1.28671,0 1.09012,-3.574192 4.53923,0 1.2331,3.574192 1.57264,0 z m 0.83993,7.523675 -3.77077,0 1.89432,-5.879547 z"
       style="text-align:start;letter-spacing:1.53999996px;word-spacing:-2.49000001px;text-anchor:start;fill:#4d4d4d;fill-opacity:1"
       id="path3157"
       inkscape:connector-curvature="0" />
    <path
       d="m 235.55347,86.94893 c 0.41029,1.18507 1.02832,2.06298 1.85411,2.633733 0.82579,0.570754 1.86379,0.854455 3.11402,0.851105 0.56218,0.0052 1.12214,-0.05882 1.67987,-0.192113 0.55771,-0.133287 1.06406,-0.367099 1.51903,-0.701435 0.44825,-0.344015 0.78929,-0.755047 1.02311,-1.233097 0.2338,-0.478045 0.35145,-0.996303 0.35295,-1.554773 3.7e-4,-0.484374 -0.0942,-0.931892 -0.2837,-1.342556 -0.18951,-0.410655 -0.47619,-0.773286 -0.86004,-1.087895 -0.31647,-0.262846 -0.66644,-0.465384 -1.04992,-0.607613 -0.38349,-0.142217 -0.77814,-0.255399 -1.18395,-0.339548 l -1.84071,-0.446774 c -0.59272,-0.112432 -1.10502,-0.298587 -1.5369,-0.558469 -0.43188,-0.259865 -0.65825,-0.72302 -0.6791,-1.389466 0.0369,-0.667546 0.3295,-1.159741 0.87792,-1.476589 0.54841,-0.316826 1.13145,-0.473942 1.74912,-0.471346 0.67909,0.0063 1.30904,0.199197 1.88985,0.578572 0.5808,0.379396 0.95162,0.907333 1.11247,1.583814 l 1.39393,-0.37529 c -0.34253,-0.992945 -0.89504,-1.741291 -1.65753,-2.24504 -0.7625,-0.503726 -1.66349,-0.756153 -2.70298,-0.757282 -1.10391,-0.0067 -2.06373,0.261375 -2.87946,0.804193 -0.81574,0.542842 -1.2439,1.400647 -1.28448,2.573419 0.001,0.434124 0.0879,0.848134 0.25913,1.242032 0.17126,0.393913 0.41848,0.736439 0.74165,1.02758 0.32242,0.286687 0.66941,0.499649 1.04098,0.638887 0.37156,0.139251 0.76324,0.253923 1.17502,0.344016 l 2.03729,0.500387 c 0.55622,0.123613 1.03874,0.336575 1.44754,0.638888 0.40879,0.302321 0.62325,0.756541 0.64336,1.36266 -0.002,0.301203 -0.0693,0.592351 -0.20105,0.873443 -0.13181,0.281098 -0.31498,0.514165 -0.54953,0.699202 -0.296,0.220782 -0.64225,0.377897 -1.03875,0.471346 -0.39652,0.09345 -0.78298,0.138874 -1.15938,0.136267 -0.87047,0.0026 -1.62701,-0.199186 -2.26961,-0.605379 -0.64262,-0.40619 -1.09535,-1.032418 -1.3582,-1.878685 z"
       style="text-align:start;letter-spacing:1.53999996px;word-spacing:-2.49000001px;text-anchor:start;fill:#4d4d4d;fill-opacity:1"
       id="path3159"
       inkscape:connector-curvature="0" />
    <path
       d="m 254.49577,90.255058 0,-4.985998 2.75213,0 c 0.55622,0.0086 1.08342,-0.0577 1.58158,-0.198815 0.49814,-0.141101 0.95385,-0.408421 1.36713,-0.801959 0.34177,-0.338053 0.60537,-0.734192 0.79079,-1.18842 0.1854,-0.454212 0.27922,-0.921835 0.28146,-1.40287 -0.002,-0.530163 -0.10984,-1.051399 -0.32391,-1.563709 -0.21409,-0.51229 -0.5231,-0.944172 -0.92705,-1.295645 -0.42445,-0.339164 -0.88909,-0.563296 -1.39394,-0.672395 -0.50486,-0.109075 -1.02312,-0.158965 -1.55477,-0.149669 l -4.11032,0 0,12.25948 z m 0,-6.254837 0,-4.717934 2.69851,0 c 0.31051,-0.0063 0.60091,0.01974 0.87121,0.07819 0.2703,0.05846 0.53389,0.187284 0.79079,0.38646 0.29375,0.237917 0.51044,0.526086 0.65006,0.864508 0.13961,0.338441 0.20886,0.693626 0.20775,1.065556 -3.8e-4,0.316473 -0.0577,0.621769 -0.17201,0.915887 -0.11431,0.294134 -0.28333,0.554752 -0.50709,0.781855 -0.28557,0.268443 -0.59012,0.44194 -0.91365,0.520491 -0.32354,0.07856 -0.6683,0.113561 -1.03428,0.104992 z"
       style="text-align:start;letter-spacing:1.53999996px;word-spacing:-2.49000001px;text-anchor:start;fill:#4d4d4d;fill-opacity:1"
       id="path3161"
       inkscape:connector-curvature="0" />
    <path
       d="m 269.2523,77.995578 -1.76922,0 -3.96736,12.25948 1.28671,0 1.09013,-3.574192 4.53923,0 1.23309,3.574192 1.57265,0 z m 0.83994,7.523675 -3.77077,0 1.89432,-5.879547 z"
       style="text-align:start;letter-spacing:1.53999996px;word-spacing:-2.49000001px;text-anchor:start;fill:#4d4d4d;fill-opacity:1"
       id="path3163"
       inkscape:connector-curvature="0" />
    <path
       d="m 285.18834,90.255058 -2.41258,-5.682966 c 0.72078,-0.212584 1.28074,-0.605 1.67987,-1.17725 0.39911,-0.572236 0.60164,-1.228248 0.60761,-1.968039 -0.003,-0.526068 -0.11766,-1.02422 -0.34402,-1.49446 -0.22637,-0.470219 -0.54656,-0.865613 -0.96056,-1.186185 -0.41327,-0.304911 -0.85558,-0.508193 -1.32692,-0.609847 -0.47135,-0.101628 -0.95834,-0.14854 -1.46095,-0.140733 l -4.59284,0 0,12.25948 1.53691,0 0,-5.307676 3.39548,0 2.26961,5.307676 z m -7.27348,-6.558643 0,-4.378386 3.05593,0 c 0.31869,-0.0071 0.61505,0.01155 0.88908,0.05585 0.27402,0.04432 0.54357,0.156754 0.80866,0.337314 0.29375,0.19808 0.51043,0.440827 0.65006,0.728242 0.13961,0.287434 0.20886,0.6106 0.20775,0.9695 7.3e-4,0.29823 -0.0499,0.586399 -0.15191,0.864507 -0.10202,0.278125 -0.25988,0.526084 -0.47358,0.743879 -0.30232,0.301952 -0.62698,0.49332 -0.97396,0.574105 -0.347,0.0808 -0.72527,0.115795 -1.13481,0.104992 z"
       style="text-align:start;letter-spacing:1.53999996px;word-spacing:-2.49000001px;text-anchor:start;fill:#4d4d4d;fill-opacity:1"
       id="path3165"
       inkscape:connector-curvature="0" />
    <path
       d="m 293.41473,77.995578 -1.76922,0 -3.96736,12.25948 1.28671,0 1.09013,-3.574192 4.53923,0 1.23309,3.574192 1.57265,0 z m 0.83994,7.523675 -3.77077,0 1.89432,-5.879547 z"
       style="text-align:start;letter-spacing:1.53999996px;word-spacing:-2.49000001px;text-anchor:start;fill:#4d4d4d;fill-opacity:1"
       id="path3167"
       inkscape:connector-curvature="0" />
    <path
       d="m 309.39769,77.995578 -1.76923,0 -3.96735,12.25948 1.28671,0 1.09013,-3.574192 4.53922,0 1.2331,3.574192 1.57264,0 z m 0.83993,7.523675 -3.77077,0 1.89432,-5.879547 z"
       style="text-align:start;letter-spacing:1.53999996px;word-spacing:-2.49000001px;text-anchor:start;fill:#4d4d4d;fill-opacity:1"
       id="path3169"
       inkscape:connector-curvature="0" />
    <path
       d="m 320.26955,86.94893 c 0.41029,1.18507 1.02832,2.06298 1.85411,2.633733 0.82579,0.570754 1.86379,0.854455 3.11402,0.851105 0.56218,0.0052 1.12214,-0.05882 1.67987,-0.192113 0.55771,-0.133287 1.06406,-0.367099 1.51903,-0.701435 0.44825,-0.344015 0.78929,-0.755047 1.02311,-1.233097 0.2338,-0.478045 0.35145,-0.996303 0.35295,-1.554773 3.7e-4,-0.484374 -0.0942,-0.931892 -0.2837,-1.342556 -0.18951,-0.410655 -0.47619,-0.773286 -0.86004,-1.087895 -0.31647,-0.262846 -0.66644,-0.465384 -1.04992,-0.607613 -0.38349,-0.142217 -0.77814,-0.255399 -1.18395,-0.339548 l -1.84071,-0.446774 c -0.59272,-0.112432 -1.10502,-0.298587 -1.5369,-0.558469 -0.43188,-0.259865 -0.65825,-0.72302 -0.6791,-1.389466 0.0369,-0.667546 0.3295,-1.159741 0.87791,-1.476589 0.54842,-0.316826 1.13146,-0.473942 1.74913,-0.471346 0.67909,0.0063 1.30904,0.199197 1.88985,0.578572 0.5808,0.379396 0.95162,0.907333 1.11247,1.583814 l 1.39393,-0.37529 c -0.34253,-0.992945 -0.89504,-1.741291 -1.65753,-2.24504 -0.7625,-0.503726 -1.66349,-0.756153 -2.70298,-0.757282 -1.10391,-0.0067 -2.06373,0.261375 -2.87946,0.804193 -0.81574,0.542842 -1.2439,1.400647 -1.28448,2.573419 10e-4,0.434124 0.0879,0.848134 0.25913,1.242032 0.17126,0.393913 0.41848,0.736439 0.74165,1.02758 0.32242,0.286687 0.66941,0.499649 1.04098,0.638887 0.37156,0.139251 0.76324,0.253923 1.17502,0.344016 l 2.03729,0.500387 c 0.55622,0.123613 1.03874,0.336575 1.44754,0.638888 0.40879,0.302321 0.62324,0.756541 0.64336,1.36266 -0.002,0.301203 -0.0693,0.592351 -0.20105,0.873443 -0.13181,0.281098 -0.31498,0.514165 -0.54953,0.699202 -0.296,0.220782 -0.64225,0.377897 -1.03875,0.471346 -0.39652,0.09345 -0.78298,0.138874 -1.15938,0.136267 -0.87047,0.0026 -1.62701,-0.199186 -2.26961,-0.605379 -0.64262,-0.40619 -1.09535,-1.032418 -1.3582,-1.878685 z"
       style="text-align:start;letter-spacing:1.53999996px;word-spacing:-2.49000001px;text-anchor:start;fill:#4d4d4d;fill-opacity:1"
       id="path3171"
       inkscape:connector-curvature="0" />
    <path
       d="m 337.98543,77.995578 -1.76923,0 -3.96735,12.25948 1.28671,0 1.09013,-3.574192 4.53922,0 1.2331,3.574192 1.57264,0 z m 0.83993,7.523675 -3.77077,0 1.89432,-5.879547 z"
       style="text-align:start;letter-spacing:1.53999996px;word-spacing:-2.49000001px;text-anchor:start;fill:#4d4d4d;fill-opacity:1"
       id="path3173"
       inkscape:connector-curvature="0" />
    <path
       d="m 353.61765,77.995578 -1.2867,0 0,7.755998 c 0.0123,0.425928 -0.0123,0.851852 -0.0737,1.277773 -0.0614,0.425928 -0.23345,0.81611 -0.51603,1.170549 -0.26919,0.310137 -0.60203,0.534268 -0.99854,0.672394 -0.39652,0.138129 -0.79638,0.20589 -1.19958,0.203283 -0.43524,0.0063 -0.87383,-0.05994 -1.31575,-0.198815 -0.44194,-0.138871 -0.79564,-0.388319 -1.06109,-0.748346 -0.21483,-0.334706 -0.34812,-0.719676 -0.39987,-1.154911 -0.0517,-0.435229 -0.0733,-0.842538 -0.0648,-1.221927 l 0,-7.755998 -1.5369,0 0,7.755998 c -0.0156,0.638518 0.0335,1.25581 0.14743,1.851878 0.11393,0.596073 0.38646,1.146349 0.8176,1.65083 0.42183,0.45571 0.92296,0.768452 1.5034,0.938226 0.58043,0.169774 1.17538,0.250193 1.78486,0.241258 0.63367,0.0048 1.2383,-0.09866 1.8139,-0.310508 0.57559,-0.211845 1.07299,-0.561073 1.49223,-1.047685 0.39687,-0.492567 0.64855,-1.017527 0.75504,-1.57488 0.10648,-0.557347 0.15264,-1.140386 0.1385,-1.749119 z m -0.58974,-2.555548 -0.60761,-1.161612 -3.59206,2.126644 0.35742,0.714839 z"
       style="text-align:start;letter-spacing:1.53999996px;word-spacing:-2.49000001px;text-anchor:start;fill:#4d4d4d;fill-opacity:1"
       id="path3175"
       inkscape:connector-curvature="0" />
    <path
       d="m 358.17128,90.255058 4.37839,0 c 0.83732,0.0048 1.57971,-0.147807 2.22717,-0.457943 0.64744,-0.310135 1.21559,-0.806798 1.70444,-1.489992 0.43597,-0.621385 0.7569,-1.290801 0.9628,-2.00825 0.20588,-0.71744 0.30789,-1.453871 0.30604,-2.209297 0.004,-0.800463 -0.11133,-1.571893 -0.34625,-2.31429 -0.23494,-0.74238 -0.61395,-1.424454 -1.13704,-2.046225 -0.57449,-0.674245 -1.20369,-1.135167 -1.88762,-1.382766 -0.68394,-0.247575 -1.46059,-0.364481 -2.32993,-0.350717 l -3.878,0 z m 1.53691,-1.30458 0,-9.668191 2.25174,0 c 0.64,-0.01376 1.2141,0.06293 1.72231,0.230089 0.5082,0.167178 0.97061,0.507471 1.38724,1.020878 0.39873,0.507843 0.6869,1.069288 0.8645,1.684339 0.17759,0.615066 0.26471,1.23906 0.26137,1.871983 7.3e-4,0.56443 -0.0722,1.137789 -0.21892,1.72008 -0.1467,0.5823 -0.37158,1.110982 -0.67463,1.586048 -0.40285,0.604264 -0.88388,1.01753 -1.44308,1.239798 -0.55922,0.222271 -1.19215,0.327263 -1.89879,0.314976 z"
       style="text-align:start;letter-spacing:1.53999996px;word-spacing:-2.49000001px;text-anchor:start;fill:#4d4d4d;fill-opacity:1"
       id="path3177"
       inkscape:connector-curvature="0" />
    <path
       d="m 379.44378,88.932607 -6.39781,0 0,-4.485612 4.93239,0 0,-1.233096 -4.93239,0 0,-3.89587 6.2191,0 0,-1.322451 -7.756,0 0,12.25948 7.93471,0 z"
       style="text-align:start;letter-spacing:1.53999996px;word-spacing:-2.49000001px;text-anchor:start;fill:#4d4d4d;fill-opacity:1"
       id="path3179"
       inkscape:connector-curvature="0" />
    <path
       d="m 395.42673,88.932607 -6.3978,0 0,-4.485612 4.93238,0 0,-1.233096 -4.93238,0 0,-3.89587 6.21909,0 0,-1.322451 -7.756,0 0,12.25948 7.93471,0 z"
       style="text-align:start;letter-spacing:1.53999996px;word-spacing:-2.49000001px;text-anchor:start;fill:#4d4d4d;fill-opacity:1"
       id="path3181"
       inkscape:connector-curvature="0" />
    <path
       d="m 410.79089,77.995578 -2.25174,0 -3.60993,9.811158 -3.69929,-9.811158 -2.28748,0 0,12.25948 1.28671,0 0,-10.704706 0.0715,0 3.96735,10.704706 1.03652,0 3.878,-10.704706 0.0715,0 0,10.704706 1.5369,0 z"
       style="text-align:start;letter-spacing:1.53999996px;word-spacing:-2.49000001px;text-anchor:start;fill:#4d4d4d;fill-opacity:1"
       id="path3183"
       inkscape:connector-curvature="0" />
    <path
       d="m 418.92437,86.94893 c 0.41028,1.18507 1.02832,2.06298 1.85411,2.633733 0.82578,0.570754 1.86379,0.854455 3.11401,0.851105 0.56219,0.0052 1.12214,-0.05882 1.67987,-0.192113 0.55772,-0.133287 1.06406,-0.367099 1.51904,-0.701435 0.44825,-0.344015 0.78929,-0.755047 1.02311,-1.233097 0.2338,-0.478045 0.35145,-0.996303 0.35295,-1.554773 3.6e-4,-0.484374 -0.0942,-0.931892 -0.2837,-1.342556 -0.18952,-0.410655 -0.4762,-0.773286 -0.86004,-1.087895 -0.31648,-0.262846 -0.66645,-0.465384 -1.04992,-0.607613 -0.38349,-0.142217 -0.77814,-0.255399 -1.18395,-0.339548 l -1.84071,-0.446774 c -0.59273,-0.112432 -1.10503,-0.298587 -1.5369,-0.558469 -0.43189,-0.259865 -0.65825,-0.72302 -0.6791,-1.389466 0.0369,-0.667546 0.32949,-1.159741 0.87791,-1.476589 0.54841,-0.316826 1.13145,-0.473942 1.74912,-0.471346 0.67909,0.0063 1.30904,0.199197 1.88986,0.578572 0.58079,0.379396 0.95162,0.907333 1.11246,1.583814 l 1.39394,-0.37529 c -0.34254,-0.992945 -0.89505,-1.741291 -1.65753,-2.24504 -0.76251,-0.503726 -1.6635,-0.756153 -2.70299,-0.757282 -1.10391,-0.0067 -2.06372,0.261375 -2.87946,0.804193 -0.81573,0.542842 -1.24389,1.400647 -1.28447,2.573419 0.001,0.434124 0.0879,0.848134 0.25913,1.242032 0.17126,0.393913 0.41847,0.736439 0.74164,1.02758 0.32242,0.286687 0.66942,0.499649 1.04099,0.638887 0.37156,0.139251 0.76323,0.253923 1.17501,0.344016 l 2.03729,0.500387 c 0.55623,0.123613 1.03874,0.336575 1.44755,0.638888 0.40879,0.302321 0.62324,0.756541 0.64335,1.36266 -0.002,0.301203 -0.0693,0.592351 -0.20104,0.873443 -0.13181,0.281098 -0.31499,0.514165 -0.54954,0.699202 -0.29599,0.220782 -0.64224,0.377897 -1.03875,0.471346 -0.39651,0.09345 -0.78297,0.138874 -1.15937,0.136267 -0.87047,0.0026 -1.62701,-0.199186 -2.26962,-0.605379 -0.64261,-0.40619 -1.09534,-1.032418 -1.35819,-1.878685 z"
       style="text-align:start;letter-spacing:1.53999996px;word-spacing:-2.49000001px;text-anchor:start;fill:#4d4d4d;fill-opacity:1"
       id="path3185"
       inkscape:connector-curvature="0" />
    <path
       d="m 436.64026,77.995578 -1.76923,0 -3.96735,12.25948 1.28671,0 1.09013,-3.574192 4.53922,0 1.2331,3.574192 1.57264,0 z m 0.83993,7.523675 -3.77077,0 1.89432,-5.879547 z m 0.83994,-10.275804 c -0.16271,0.104635 -0.3377,0.20367 -0.52496,0.297105 -0.18728,0.09346 -0.37567,0.143355 -0.56517,0.14967 -0.18765,-0.0041 -0.38423,-0.04503 -0.58974,-0.122863 -0.20552,-0.0778 -0.41997,-0.167898 -0.64336,-0.270299 -0.22264,-0.10237 -0.45199,-0.19247 -0.68803,-0.270298 -0.23605,-0.0778 -0.48326,-0.118752 -0.74164,-0.122863 -0.39838,0.0034 -0.77218,0.09495 -1.12141,0.274766 -0.34923,0.179842 -0.64261,0.427801 -0.88014,0.743879 l 0.76845,0.554 c 0.15078,-0.163803 0.31832,-0.296346 0.50262,-0.39763 0.18429,-0.101254 0.39204,-0.153378 0.62325,-0.15637 0.26359,0.0041 0.50485,0.04953 0.72377,0.136267 0.21892,0.08676 0.44231,0.190265 0.67017,0.310507 0.22859,0.117292 0.42815,0.20888 0.59867,0.274766 0.17052,0.06591 0.38795,0.09942 0.65229,0.100524 0.38013,-7.31e-4 0.71893,-0.07072 1.01641,-0.209983 0.29747,-0.139231 0.5782,-0.343258 0.84217,-0.612081 z"
       style="text-align:start;letter-spacing:1.53999996px;word-spacing:-2.49000001px;text-anchor:start;fill:#4d4d4d;fill-opacity:1"
       id="path3187"
       inkscape:connector-curvature="0" />
    <path
       d="m 448.23365,90.433768 c 1.15907,-0.02405 2.10932,-0.359184 2.85075,-1.005407 0.74141,-0.646222 1.28923,-1.45924 1.64346,-2.439056 0.35421,-0.97981 0.53006,-1.982127 0.52753,-3.006955 0.002,-1.026911 -0.17839,-2.007166 -0.5401,-2.940766 -0.36173,-0.933582 -0.91507,-1.699385 -1.66002,-2.297412 -0.74496,-0.598003 -1.69146,-0.907104 -2.83949,-0.927304 -1.17618,0.02241 -2.13592,0.348937 -2.87921,0.979594 -0.74331,0.630679 -1.29002,1.431121 -1.64016,2.401327 -0.35014,0.970225 -0.52355,1.975852 -0.52024,3.016884 -0.003,1.044463 0.17352,2.037293 0.52884,2.978493 0.35532,0.941207 0.90624,1.711643 1.65274,2.311312 0.74649,0.59967 1.70512,0.909433 2.8759,0.92929 z m 0,-1.250967 c -0.85836,-0.02206 -1.54033,-0.293657 -2.0459,-0.814784 -0.50557,-0.521124 -0.86718,-1.159403 -1.08483,-1.914841 -0.21765,-0.75543 -0.32378,-1.49564 -0.31837,-2.220632 -0.008,-0.755538 0.091,-1.525975 0.29587,-2.311312 0.20485,-0.78532 0.5616,-1.448531 1.07027,-1.989634 0.50865,-0.541082 1.21489,-0.823046 2.1187,-0.845891 0.57596,0.0082 1.09049,0.161594 1.5436,0.460177 0.4531,0.298604 0.8202,0.693254 1.1013,1.183951 0.2729,0.501141 0.46427,1.044715 0.57411,1.630725 0.10982,0.586026 0.16269,1.156407 0.1586,1.711145 0.007,0.726979 -0.0939,1.481089 -0.30116,2.262331 -0.20729,0.781251 -0.56051,1.445344 -1.05968,1.992282 -0.49918,0.546941 -1.18335,0.832435 -2.05251,0.856483 z"
       style="text-align:start;letter-spacing:1.53999996px;word-spacing:-2.49000001px;text-anchor:start;fill:#4d4d4d;fill-opacity:1"
       id="path3189"
       inkscape:connector-curvature="0" />
    <path
       d="m 462.7621,90.255058 0,-4.985998 2.75212,0 c 0.55623,0.0086 1.08342,-0.0577 1.58158,-0.198815 0.49815,-0.141101 0.95386,-0.408421 1.36713,-0.801959 0.34178,-0.338053 0.60537,-0.734192 0.79079,-1.18842 0.1854,-0.454212 0.27923,-0.921835 0.28147,-1.40287 -0.002,-0.530163 -0.10984,-1.051399 -0.32391,-1.563709 -0.21409,-0.51229 -0.52311,-0.944172 -0.92706,-1.295645 -0.42444,-0.339164 -0.88908,-0.563296 -1.39393,-0.672395 -0.50486,-0.109075 -1.02312,-0.158965 -1.55478,-0.149669 l -4.11032,0 0,12.25948 z m 0,-6.254837 0,-4.717934 2.69851,0 c 0.3105,-0.0063 0.60091,0.01974 0.87121,0.07819 0.27029,0.05846 0.53389,0.187284 0.79079,0.38646 0.29375,0.237917 0.51043,0.526086 0.65006,0.864508 0.13961,0.338441 0.20886,0.693626 0.20775,1.065556 -3.8e-4,0.316473 -0.0577,0.621769 -0.17201,0.915887 -0.11431,0.294134 -0.28334,0.554752 -0.50709,0.781855 -0.28557,0.268443 -0.59012,0.44194 -0.91365,0.520491 -0.32355,0.07856 -0.66831,0.113561 -1.03428,0.104992 z"
       style="text-align:start;letter-spacing:1.53999996px;word-spacing:-2.49000001px;text-anchor:start;fill:#4d4d4d;fill-opacity:1"
       id="path3191"
       inkscape:connector-curvature="0" />
    <path
       d="m 477.51865,77.995578 -1.76923,0 -3.96735,12.25948 1.28671,0 1.09012,-3.574192 4.53923,0 1.2331,3.574192 1.57264,0 z m 0.83993,7.523675 -3.77077,0 1.89432,-5.879547 z"
       style="text-align:start;letter-spacing:1.53999996px;word-spacing:-2.49000001px;text-anchor:start;fill:#4d4d4d;fill-opacity:1"
       id="path3193"
       inkscape:connector-curvature="0" />
    <path
       d="m 493.15084,77.995578 -1.28671,0 0,7.755998 c 0.0123,0.425928 -0.0123,0.851852 -0.0737,1.277773 -0.0614,0.425928 -0.23345,0.81611 -0.51603,1.170549 -0.26919,0.310137 -0.60203,0.534268 -0.99854,0.672394 -0.39652,0.138129 -0.79638,0.20589 -1.19959,0.203283 -0.43523,0.0063 -0.87382,-0.05994 -1.31575,-0.198815 -0.44194,-0.138871 -0.79563,-0.388319 -1.06108,-0.748346 -0.21483,-0.334706 -0.34812,-0.719676 -0.39987,-1.154911 -0.0517,-0.435229 -0.0734,-0.842538 -0.0648,-1.221927 l 0,-7.755998 -1.5369,0 0,7.755998 c -0.0156,0.638518 0.0335,1.25581 0.14743,1.851878 0.11393,0.596073 0.38646,1.146349 0.8176,1.65083 0.42183,0.45571 0.92296,0.768452 1.50339,0.938226 0.58043,0.169774 1.17539,0.250193 1.78487,0.241258 0.63366,0.0048 1.2383,-0.09866 1.8139,-0.310508 0.57558,-0.211845 1.07299,-0.561073 1.49222,-1.047685 0.39688,-0.492567 0.64856,-1.017527 0.75505,-1.57488 0.10647,-0.557347 0.15264,-1.140386 0.1385,-1.749119 z"
       style="text-align:start;letter-spacing:1.53999996px;word-spacing:-2.49000001px;text-anchor:start;fill:#4d4d4d;fill-opacity:1"
       id="path3195"
       inkscape:connector-curvature="0" />
    <path
       d="m 504.92436,88.896865 -5.70084,0 0,-10.901287 -1.5369,0 0,12.25948 7.23774,0 z"
       style="text-align:start;letter-spacing:1.53999996px;word-spacing:-2.49000001px;text-anchor:start;fill:#4d4d4d;fill-opacity:1"
       id="path3197"
       inkscape:connector-curvature="0" />
    <path
       d="m 512.57636,90.433768 c 1.15907,-0.02405 2.10932,-0.359184 2.85075,-1.005407 0.74141,-0.646222 1.28924,-1.45924 1.64347,-2.439056 0.35421,-0.97981 0.53005,-1.982127 0.52752,-3.006955 0.002,-1.026911 -0.17839,-2.007166 -0.5401,-2.940766 -0.36173,-0.933582 -0.91507,-1.699385 -1.66001,-2.297412 -0.74497,-0.598003 -1.69146,-0.907104 -2.8395,-0.927304 -1.17618,0.02241 -2.13592,0.348937 -2.87921,0.979594 -0.7433,0.630679 -1.29002,1.431121 -1.64016,2.401327 -0.35014,0.970225 -0.52355,1.975852 -0.52024,3.016884 -0.003,1.044463 0.17352,2.037293 0.52885,2.978493 0.35532,0.941207 0.90623,1.711643 1.65273,2.311312 0.74649,0.59967 1.70513,0.909433 2.8759,0.92929 z m 0,-1.250967 c -0.85836,-0.02206 -1.54033,-0.293657 -2.04589,-0.814784 -0.50558,-0.521124 -0.86719,-1.159403 -1.08484,-1.914841 -0.21765,-0.75543 -0.32377,-1.49564 -0.31837,-2.220632 -0.008,-0.755538 0.091,-1.525975 0.29587,-2.311312 0.20485,-0.78532 0.56161,-1.448531 1.07027,-1.989634 0.50866,-0.541082 1.21489,-0.823046 2.1187,-0.845891 0.57596,0.0082 1.0905,0.161594 1.54361,0.460177 0.45309,0.298604 0.82019,0.693254 1.10129,1.183951 0.2729,0.501141 0.46427,1.044715 0.57411,1.630725 0.10982,0.586026 0.16269,1.156407 0.1586,1.711145 0.007,0.726979 -0.0939,1.481089 -0.30115,2.262331 -0.20729,0.781251 -0.56052,1.445344 -1.05969,1.992282 -0.49918,0.546941 -1.18335,0.832435 -2.05251,0.856483 z"
       style="text-align:start;letter-spacing:1.53999996px;word-spacing:-2.49000001px;text-anchor:start;fill:#4d4d4d;fill-opacity:1"
       id="path3199"
       inkscape:connector-curvature="0" />
  </g>
  <g
     transform="translate(-72.003766,-55.296838)"
     id="layer1">
    <path
       d="m 201.30062,98.218876 6.87647,23.101344 -3.70737,1.7019 -11.20842,-10.03683 3.85968,-14.281713 z m -10.59598,-2.966119 -17.36192,16.718893 2.38841,3.30703 14.69793,-3.21517 3.67448,-14.330473 z m -19.56568,14.421333 17.36192,-16.718893 -2.38841,-3.307033 -14.69793,3.215171 -3.67448,14.330475 z m 38.03088,-25.307994 a 9.50772,9.50772 0 0 1 -9.50772,9.50772 9.50772,9.50772 0 0 1 -9.50772,-9.50772 9.50772,9.50772 0 0 1 9.50772,-9.507719 9.50772,9.50772 0 0 1 9.50772,9.507719 z"
       style="fill:#ffb040;fill-opacity:1;fill-rule:evenodd;stroke:none"
       id="path3417"
       inkscape:connector-curvature="0" />
    <path
       id="path3421"
       style="fill:#c7d605;fill-opacity:1;fill-rule:evenodd;stroke:none"
       d="m 153.25641,77.641017 24.0898,0.799764 0.43915,4.055638 -13.07178,7.449514 -12.32215,-8.187133 z m -6.17149,9.109633 10.35429,21.76571 3.89352,-1.21715 1.60894,-14.959199 -12.42709,-8.026935 z m 7.47673,23.12767 -10.3543,-21.76571 -3.89352,1.217149 -1.60893,14.959201 12.42709,8.02694 z M 142.61186,65.786998 a 9.50772,9.50772 0 0 1 6.00419,12.030927 9.50772,9.50772 0 0 1 -12.03093,6.004188 9.50772,9.50772 0 0 1 -6.00418,-12.030927 9.50772,9.50772 0 0 1 12.03092,-6.004188 z"
       inkscape:connector-curvature="0" />
    <path
       d="m 118.50138,116.79356 8.3391,-22.614547 3.98781,0.859279 2.95804,14.751838 -11.64849,9.12015 z m 6.70504,8.7244 23.91817,-2.97969 0.0698,-4.07874 -13.6931,-6.23419 -11.52946,9.27017 z m 24.30551,0.18025 -23.91817,2.9797 -0.0698,4.07874 13.69312,6.23418 11.52945,-9.27017 z m -45.61181,-2.53069 a 9.50772,9.50772 0 0 1 13.30908,-1.91364 9.50772,9.50772 0 0 1 1.91363,13.30908 9.50772,9.50772 0 0 1 -13.30908,1.91363 9.50772,9.50772 0 0 1 -1.91363,-13.30907 z"
       style="fill:#17abd6;fill-opacity:1;fill-rule:evenodd;stroke:none"
       id="path3423"
       inkscape:connector-curvature="0" />
    <path
       id="path3425"
       style="fill:#d40045;fill-opacity:1;fill-rule:evenodd;stroke:none"
       d="m 144.42491,161.96515 -18.72909,-15.17166 2.09662,-3.49931 14.91918,1.94547 4.88745,13.96343 z m 10.41778,-3.54155 4.87414,-23.60509 -3.83941,-1.37837 -10.30831,10.95924 5.0678,13.89899 z m 7.99068,-22.95516 -4.87412,23.60509 3.83941,1.37838 10.3083,-10.95926 -5.0678,-13.89899 z m -17.07119,42.37235 a 9.50772,9.50772 0 0 1 2.47015,-13.21711 9.50772,9.50772 0 0 1 13.21711,2.47016 9.50772,9.50772 0 0 1 -2.47016,13.21711 9.50772,9.50772 0 0 1 -13.2171,-2.47016 z"
       inkscape:connector-curvature="0" />
    <path
       d="m 195.89509,151.56707 -20.23766,13.09179 -2.67524,-3.07963 6.48225,-13.57746 14.79083,-0.30966 z m -0.13136,-11.00252 -20.92449,-11.96342 -2.5025,3.22156 7.21632,13.20193 14.78558,-0.50111 z m -19.33889,-14.72405 20.9245,11.96339 2.50251,-3.22155 -7.21634,-13.20193 -14.78559,0.50111 z m 34.97629,29.38538 a 9.50772,9.50772 0 0 1 -11.7966,-6.45243 9.50772,9.50772 0 0 1 6.45244,-11.7966 9.50772,9.50772 0 0 1 11.79659,6.45244 9.50772,9.50772 0 0 1 -6.45243,11.79659 z"
       style="fill:#000000;fill-opacity:1;fill-rule:evenodd;stroke:none"
       id="path3427"
       inkscape:connector-curvature="0" />
  </g>
</svg>
